<?xml version="1.0" encoding="UTF-8" standalone="no"?>
<svg
   id="aa7e3978-927b-421e-bb97-044ef9e1e94c"
   data-name="Layer 1"
   width="863.35926"
   height="551.172"
   viewBox="0 0 863.35926 551.172"
   version="1.1"
   sodipodi:docname="construcao_um.svg"
   inkscape:version="1.1 (c4e8f9ed74, 2021-05-24)"
   xmlns:inkscape="http://www.inkscape.org/namespaces/inkscape"
   xmlns:sodipodi="http://sodipodi.sourceforge.net/DTD/sodipodi-0.dtd"
   xmlns="http://www.w3.org/2000/svg"
   xmlns:svg="http://www.w3.org/2000/svg">
  <defs
     id="defs109" />
  <sodipodi:namedview
     id="namedview107"
     pagecolor="#ffffff"
     bordercolor="#666666"
     borderopacity="1.0"
     inkscape:pageshadow="2"
     inkscape:pageopacity="0.0"
     inkscape:pagecheckerboard="0"
     showgrid="false"
     inkscape:zoom="1.1974484"
     inkscape:cx="336.54895"
     inkscape:cy="298.13393"
     inkscape:window-width="1920"
     inkscape:window-height="1015"
     inkscape:window-x="0"
     inkscape:window-y="0"
     inkscape:window-maximized="1"
     inkscape:current-layer="aa7e3978-927b-421e-bb97-044ef9e1e94c" />
  <path
     id="af9c47ac-a2dc-4072-9acc-a467df334c71"
     data-name="Path 438"
     d="M1009.5389,675.54135a24.21464,24.21464,0,0,1-23.38269-4.11877c-8.18977-6.87442-10.758-18.196-12.8467-28.68191l-6.17973-31.01657,12.93769,8.90836c9.30465,6.40642,18.81827,13.01866,25.26012,22.29786s9.25223,21.94707,4.07792,31.988"
     transform="translate(-168.32037 -174.414)"
     fill="#e6e6e6" />
  <path
     id="a2175a99-769b-4e22-9c2a-ba3916b1dd51"
     data-name="Path 439"
     d="M1007.54119,715.25191c1.62839-11.86369,3.30382-23.88079,2.15884-35.87167-1.01467-10.64933-4.26373-21.04881-10.87831-29.57938a49.20592,49.20592,0,0,0-12.62466-11.44039c-1.26215-.79648-2.42409,1.20354-1.16733,1.997a46.77938,46.77938,0,0,1,18.50445,22.32562c4.02858,10.24607,4.67546,21.41582,3.98155,32.3003-.41944,6.58217-1.31074,13.1212-2.20588,19.65251a1.19816,1.19816,0,0,0,.808,1.4225,1.16348,1.16348,0,0,0,1.42253-.808Z"
     transform="translate(-168.32037 -174.414)"
     fill="#f2f2f2" />
  <path
     id="af3ce5ac-a957-487e-9ef8-bdcad0da5bae"
     data-name="Path 442"
     d="M995.82016,696.21546a17.82511,17.82511,0,0,1-15.53141,8.01861c-7.86441-.37318-14.41807-5.85972-20.31713-11.07026l-17.452-15.4088,11.54987-.55281c8.30619-.39784,16.82672-.771,24.73813,1.79338s15.20758,8.72639,16.654,16.91541"
     transform="translate(-168.32037 -174.414)"
     fill="#e6e6e6" />
  <path
     id="baa57c63-949d-49ac-a818-33ae8c022157"
     data-name="Path 443"
     d="M1012.14417,722.0716c-7.83972-13.87143-16.93234-29.288-33.1808-34.21552a37.02609,37.02609,0,0,0-13.95545-1.44105c-1.48189.128-1.1118,2.41174.367,2.28454a34.39821,34.39821,0,0,1,22.27164,5.89215c6.27994,4.27453,11.16975,10.21755,15.30781,16.51907,2.53511,3.86051,4.80576,7.88445,7.07642,11.903C1010.75635,724.2983,1012.87818,723.37076,1012.14417,722.0716Z"
     transform="translate(-168.32037 -174.414)"
     fill="#f2f2f2" />
  <rect
     id="b0eb2d2e-6002-4ca6-b573-2a3a0ae57324"
     data-name="Rectangle 62"
     x="5.0933685"
     y="20.25807"
     width="531.92377"
     height="252.40706"
     fill="#e6e6e6" />
  <rect
     id="b22521a2-b305-47e5-91b3-f89bb30cedaf"
     data-name="Rectangle 75"
     x="20.303909"
     y="41.902405"
     width="501.50345"
     height="210.59109"
     fill="#ffffff" />
  <rect
     id="b9a97102-17ad-4853-bba8-52d2fbac14c1"
     data-name="Rectangle 80"
     width="531.92377"
     height="22.5977"
     fill="#6c63ff"
     style="fill:#009ca1;fill-opacity:1"
     x="4.86656"
     y="5.6750245" />
  <circle
     id="f3a384f8-0054-45a4-b875-f53a31bc49a8"
     data-name="Ellipse 90"
     cx="21.659458"
     cy="18.962973"
     r="4.1883998"
     fill="#ffffff" />
  <circle
     id="a6ee8772-6be5-4bf0-b917-98ef2062699d"
     data-name="Ellipse 91"
     cx="37.557247"
     cy="18.962973"
     r="4.1883998"
     fill="#ffffff" />
  <circle
     id="a71cc61a-5bfc-4a03-b945-2c535d93104d"
     data-name="Ellipse 92"
     cx="53.455769"
     cy="18.962973"
     r="4.1883998"
     fill="#ffffff" />
  <path
     d="M 497.18987,209.84216 H 248.53105 a 0.77823,0.77823 0 0 1 -0.77819,-0.77819 V 89.881797 a 0.77819,0.77819 0 0 1 1.55638,0 V 208.2858 h 247.88063 a 0.77819,0.77819 0 0 1 0,1.55638 z"
     fill="#3f3d56"
     id="path12" />
  <path
     d="m 301.65861,201.28208 h -22.61649 a 2.31263,2.31263 0 0 1 -2.31,-2.30987 v -31.17694 a 2.31263,2.31263 0 0 1 2.31,-2.30986 h 22.61649 a 2.31263,2.31263 0 0 1 2.31006,2.30986 v 31.17694 a 2.31263,2.31263 0 0 1 -2.31006,2.30987 z"
     fill="#6c63ff"
     id="path14"
     style="fill:#009ca1;fill-opacity:1" />
  <path
     d="m 342.90261,201.28208 h -22.61649 a 2.31264,2.31264 0 0 1 -2.31006,-2.30987 V 138.2241 a 2.31264,2.31264 0 0 1 2.31006,-2.30986 h 22.61649 a 2.31263,2.31263 0 0 1 2.31006,2.30986 v 60.74811 a 2.31263,2.31263 0 0 1 -2.31006,2.30987 z"
     fill="#6c63ff"
     id="path16"
     style="fill:#009ca1;fill-opacity:1" />
  <path
     d="m 384.14661,201.28208 h -22.61649 a 2.31263,2.31263 0 0 1 -2.31006,-2.30987 v -31.17694 a 2.31263,2.31263 0 0 1 2.31006,-2.30986 h 22.61649 a 2.31263,2.31263 0 0 1 2.31005,2.30986 v 31.17694 a 2.31263,2.31263 0 0 1 -2.31005,2.30987 z"
     fill="#6c63ff"
     id="path18"
     style="fill:#009ca1;fill-opacity:1" />
  <path
     d="m 425.3906,201.28208 h -22.61648 a 2.26208,2.26208 0 0 1 -2.31006,-2.20522 v -72.63023 a 2.26208,2.26208 0 0 1 2.31006,-2.20522 h 22.61648 a 2.26208,2.26208 0 0 1 2.31006,2.20522 v 72.63023 a 2.26208,2.26208 0 0 1 -2.31006,2.20522 z"
     fill="#6c63ff"
     id="path20"
     style="fill:#009ca1;fill-opacity:1" />
  <path
     d="m 466.6346,201.28208 h -22.61649 a 2.31263,2.31263 0 0 1 -2.31,-2.30987 v -93.432 a 2.31264,2.31264 0 0 1 2.31,-2.30987 h 22.61649 a 2.31264,2.31264 0 0 1 2.31006,2.30987 v 93.432 a 2.31263,2.31263 0 0 1 -2.31006,2.30987 z"
     fill="#6c63ff"
     id="path22"
     style="fill:#009ca1;fill-opacity:1" />
  <circle
     cx="290.35037"
     cy="151.47798"
     r="4.6691298"
     fill="#3f3d56"
     id="circle24" />
  <circle
     cx="331.59439"
     cy="121.12864"
     r="4.6691298"
     fill="#3f3d56"
     id="circle26" />
  <circle
     cx="372.83838"
     cy="151.47798"
     r="4.6691298"
     fill="#3f3d56"
     id="circle28" />
  <circle
     cx="414.08237"
     cy="106.34306"
     r="4.6691298"
     fill="#3f3d56"
     id="circle30" />
  <circle
     cx="455.32639"
     cy="89.222908"
     r="4.6691298"
     fill="#3f3d56"
     id="circle32" />
  <polygon
     points="326.728,113.938 367.873,144.757 408.761,100.013 408.925,99.946 450.169,83.328 450.751,84.772 409.671,101.323 368.07,146.849 326.728,115.883 285.95,146.426 285.017,145.18 "
     fill="#3f3d56"
     id="polygon34"
     transform="translate(4.8665588,5.6750226)" />
  <rect
     x="76.993675"
     y="67.642342"
     width="70.630539"
     height="5.3087602"
     fill="#e6e6e6"
     id="rect36" />
  <rect
     x="76.993675"
     y="83.227058"
     width="109.06894"
     height="5.3087502"
     fill="#6c63ff"
     id="rect38"
     style="fill:#009ca1;fill-opacity:1" />
  <rect
     x="78.127724"
     y="98.069435"
     width="88.888786"
     height="5.3087502"
     fill="#e6e6e6"
     id="rect40" />
  <rect
     x="76.993675"
     y="114.35493"
     width="51.89183"
     height="5.3087502"
     fill="#e6e6e6"
     id="rect42" />
  <rect
     x="76.993675"
     y="130.26239"
     width="78.31823"
     height="5.3087502"
     fill="#6c63ff"
     id="rect44"
     style="fill:#009ca1;fill-opacity:1" />
  <rect
     x="44.801517"
     y="65.972389"
     width="8.6486502"
     height="8.6486397"
     fill="#e6e6e6"
     id="rect46" />
  <rect
     x="44.801517"
     y="81.557106"
     width="8.6486502"
     height="8.6486301"
     fill="#6c63ff"
     id="rect48"
     style="fill:#009ca1;fill-opacity:1" />
  <rect
     x="44.801517"
     y="96.399498"
     width="8.6486502"
     height="8.6486502"
     fill="#e6e6e6"
     id="rect50" />
  <rect
     x="44.801517"
     y="112.68499"
     width="8.6486502"
     height="8.6486502"
     fill="#e6e6e6"
     id="rect52" />
  <rect
     x="44.801517"
     y="128.59245"
     width="8.6486502"
     height="8.6486502"
     fill="#6c63ff"
     id="rect54"
     style="fill:#009ca1;fill-opacity:1" />
  <rect
     x="76.993675"
     y="146.2693"
     width="70.630539"
     height="5.3087502"
     fill="#e6e6e6"
     id="rect56" />
  <rect
     x="76.993675"
     y="161.85405"
     width="109.06894"
     height="5.3087502"
     fill="#6c63ff"
     id="rect58"
     style="fill:#009ca1;fill-opacity:1" />
  <rect
     x="78.127724"
     y="176.69643"
     width="88.888786"
     height="5.3087502"
     fill="#e6e6e6"
     id="rect60" />
  <rect
     x="76.993675"
     y="192.98193"
     width="51.89183"
     height="5.3087502"
     fill="#e6e6e6"
     id="rect62" />
  <rect
     x="76.993675"
     y="208.8894"
     width="78.31823"
     height="5.3087502"
     fill="#e6e6e6"
     id="rect64" />
  <rect
     x="44.801517"
     y="144.59937"
     width="8.6486502"
     height="8.6486502"
     fill="#e6e6e6"
     id="rect66" />
  <rect
     x="44.801517"
     y="160.18408"
     width="8.6486502"
     height="8.6486301"
     fill="#6c63ff"
     id="rect68"
     style="fill:#009ca1;fill-opacity:1" />
  <rect
     x="44.801517"
     y="175.02649"
     width="8.6486502"
     height="8.6486502"
     fill="#e6e6e6"
     id="rect70" />
  <rect
     x="44.801517"
     y="191.31198"
     width="8.6486502"
     height="8.6486502"
     fill="#e6e6e6"
     id="rect72" />
  <rect
     x="44.801517"
     y="207.21948"
     width="8.6486502"
     height="8.6486502"
     fill="#e6e6e6"
     id="rect74" />
  <path
     d="M813.89981,337.21642c2.97507-9.48142,9.74046-18.17745,19.09685-21.38268,9.35695-3.20524,25.67946-.20914,30.09216,8.68789,6.35889,12.82263,3.50213,28.52557.13009,42.44794-1.75836-.09308-3.533-.16625-5.31263-.2329l-2.51754-8.39087V366.654c-13.89076-.42928-28.35231-.1605-42.82171.11747C811.27013,356.91483,810.92474,346.69784,813.89981,337.21642Z"
     transform="translate(-168.32037 -174.414)"
     fill="#2f2e41"
     id="path76" />
  <polygon
     points="773.219 524.09 761.533 528.987 737.084 486.247 754.33 479.019 773.219 524.09"
     fill="#ffb7b7"
     id="polygon78" />
  <path
     d="M949.26623,708.582l-37.67754,15.79009-.19974-.47656a15.90176,15.90176,0,0,1,8.51854-20.81117l.00093-.00039,23.01219-9.644Z"
     transform="translate(-168.32037 -174.414)"
     fill="#2f2e41"
     id="path80" />
  <path
     d="M770.17936,496.60793a8.76574,8.76574,0,0,1,3.55637-12.9622l25.1152-75.78554,16.82,8.971L785.69455,488.505a8.81325,8.81325,0,0,1-15.51519,8.1029Z"
     transform="translate(-168.32037 -174.414)"
     fill="#ffb7b7"
     id="path82" />
  <polygon
     points="632.825 537.677 620.155 537.676 614.128 488.807 632.827 488.808 632.825 537.677"
     fill="#ffb7b7"
     id="polygon84" />
  <path
     d="M804.37626,724.37206l-40.85247-.00152v-.51672a15.90177,15.90177,0,0,1,15.90092-15.90066h.001l24.9513.001Z"
     transform="translate(-168.32037 -174.414)"
     fill="#2f2e41"
     id="path86" />
  <polygon
     points="683.623 259.72 686.494 267.184 685.92 274.648 630.801 267.759 632.524 261.443 638.839 253.979 683.623 259.72"
     fill="#ffb7b7"
     id="polygon88" />
  <circle
     cx="665.85899"
     cy="172.48496"
     r="20.06685"
     fill="#ffb8b8"
     id="circle90" />
  <path
     d="M855.11916,442.13336l-54.65674-5.814-2.36816-7.74414c-.73584-1.00879-7.67334-10.84082-6.13477-20.66943a17.11819,17.11819,0,0,1,7.39527-11.46241l13.28906-15.56006,11.69067-6.959,23.04712-2.3042.07935.01758,20.69067,4.68213-.251,37.92773Z"
     transform="translate(-168.32037 -174.414)"
     fill="#ccc"
     id="path92" />
  <path
     d="M801.83937,446.1529l-15.31347-1.81836.04-.481c.14087-1.69092,3.49-41.51367,6.91992-50.66016,3.50391-9.34326,18.67993-12.2539,19.32422-12.373l.186-.03418,3.37281,2.02343-9.30713,29.085Z"
     transform="translate(-168.32037 -174.414)"
     fill="#ccc"
     id="path94" />
  <path
     d="M854.81459,446.19166v12.7535s14.92805,19.39923,6.88987,34.32729c0,0,17.22467,32.15273,18.373,43.63585l16.07636,52.82234s40.19092,40.19092,36.746,68.89871l2.29662,9.1865L908.78524,679.299l-5.74156-8.03818-44.78416-76.93689-37.89429-70.047-6.88987,82.67845s4.59325,64.30546-8.03818,71.19533l-1.14832,10.33481H777.48437v-9.82394s-9.94148-34.96022-4.19993-61.37139l-2.29662-111.38625s10.33481-47.08079,22.96624-55.119l4.59325-11.48312Z"
     transform="translate(-168.32037 -174.414)"
     fill="#2f2e41"
     id="path96" />
  <path
     d="M835.72628,472.56038a9.02766,9.02766,0,0,1,1.358.41978l35.03179-24.11374-.80161-10.30066,15.38739-3.24161,3.19125,18.09738a6.86041,6.86041,0,0,1-3.72174,7.34421l-43.39415,21.401a9.00181,9.00181,0,1,1-7.05092-9.60637Z"
     transform="translate(-168.32037 -174.414)"
     fill="#ffb7b7"
     id="path98" />
  <path
     d="M871.78518,450.19782,864.65505,402.63l-5.85278-24.57276,8.74487-1.82763c.238-.08838,7.35815-2.49512,13.10693,1.38037,4.13794,2.78955,6.43018,8.08349,6.8125,15.73437l2.31641,54.43018Z"
     transform="translate(-168.32037 -174.414)"
     fill="#ccc"
     id="path100" />
  <path
     d="M820.391,320.76838a25.20457,25.20457,0,0,1,38.31986,21.99693c-11.21678.51584-22.99987.65013-34.94781.67333l-2.82368-6.91076-1.66472,6.91587q-5.46093-.00053-10.9426-.01436A25.7352,25.7352,0,0,1,820.391,320.76838Z"
     transform="translate(-168.32037 -174.414)"
     fill="#2f2e41"
     id="path102" />
  <path
     d="M1030.67963,725.586h-381a1,1,0,1,1,0-2h381a1,1,0,0,1,0,2Z"
     transform="translate(-168.32037 -174.414)"
     fill="#cbcbcb"
     id="path104" />
  <text
     xml:space="preserve"
     style="font-style:normal;font-variant:normal;font-weight:bold;font-stretch:normal;font-size:30.907px;line-height:1.25;font-family:sans-serif;-inkscape-font-specification:'sans-serif Bold';fill:#2f2e41;fill-opacity:1;stroke:none;stroke-width:0.772679"
     x="13.893354"
     y="313.9751"
     id="text3654"
     transform="scale(0.91476159,1.093181)"><tspan
       sodipodi:role="line"
       id="tspan3652"
       x="13.893354"
       y="313.9751"
       style="font-style:normal;font-variant:normal;font-weight:bold;font-stretch:normal;font-family:sans-serif;-inkscape-font-specification:'sans-serif Bold';fill:#2f2e41;fill-opacity:1;stroke-width:0.772679">Acompanhe os</tspan><tspan
       sodipodi:role="line"
       x="13.893354"
       y="352.60892"
       style="font-style:normal;font-variant:normal;font-weight:bold;font-stretch:normal;font-family:sans-serif;-inkscape-font-specification:'sans-serif Bold';fill:#2f2e41;fill-opacity:1;stroke-width:0.772679"
       id="tspan8205">resultados das obras</tspan></text>
</svg>
